<svg width="35" height="34" viewBox="0 0 35 34" fill="none" xmlns="http://www.w3.org/2000/svg">
<path d="M34 16.9169L33.9883 16.5165L33.9532 16.116L33.8933 15.7168L33.8114 15.3176L33.7073 14.9197L33.5785 14.5231L33.4275 14.1277L33.2532 13.7348L33.0567 13.3432L32.8382 12.9541L32.5988 12.5675L32.336 12.1848L31.904 11.6138L31.4265 11.0517L30.9035 10.4971L30.3375 9.95263L29.7299 9.41828L29.0833 8.89276L28.4003 8.37989L27.6821 7.87964L26.9314 7.39203L26.1507 6.91705L25.3415 6.45723L24.5075 6.01256L23.6514 5.58306L22.7758 5.16871L21.882 4.77205L20.6707 4.27055L19.4412 3.79935L18.2 3.36353L16.9549 2.96056L15.7123 2.59295L14.4815 2.26198L13.2664 1.96891L12.0759 1.71247L10.9167 1.49519L9.79384 1.31581L8.71657 1.17685L7.68743 1.07832L6.71554 1.01895L6.02598 1.00126L5.37415 1.00505L4.76005 1.03284L4.18759 1.08337L3.65676 1.15538L3.17146 1.25012L2.73171 1.3676L2.33879 1.50656L1.99401 1.66826L1.79234 1.78827L1.6128 1.91712L1.45667 2.05607L1.32266 2.20387L1.21077 2.36178L1.1236 2.52853L1.05855 2.70412L1.01821 2.88855L1 3.08309L1.00651 3.28521L1.03513 3.49618L1.08847 3.71598L1.16393 3.94336L1.32266 4.30086L1.53213 4.67605L1.79234 5.06765L2.1033 5.47695L2.46369 5.90266L2.87222 6.3448L3.32759 6.80083L4.00544 7.43245L4.76005 8.08681L5.58753 8.76391L6.48135 9.46249L7.68743 10.3607L8.98068 11.2854L10.6317 12.4235L12.3712 13.5883L14.7873 15.1686L23.3613 20.7332L25.0669 21.8878L26.4135 22.8276L27.6821 23.746L28.8595 24.6353L29.7299 25.3263L30.5301 25.9946L31.2561 26.6414L31.904 27.2629L32.336 27.7113L32.7211 28.1446L33.0567 28.5628L33.343 28.9632L33.5785 29.3473L33.7619 29.7136L33.8933 30.0623L33.9532 30.2833L33.9883 30.4968L34 30.7015L33.9883 30.8973L33.9532 31.0842L33.8933 31.2623L33.8114 31.4316L33.7073 31.5908L33.5785 31.7411L33.4275 31.8826L33.2532 32.014L33.0567 32.1365L32.8382 32.2489L32.47 32.3993L32.0536 32.5268L31.5904 32.633L31.0817 32.7176L30.5301 32.7782L29.9368 32.8174L29.3032 32.8338L28.6318 32.8262L27.9254 32.7972L26.9314 32.7226L25.884 32.609L24.7885 32.4548L23.6514 32.2616L22.4791 32.0291L21.2796 31.7588L20.0579 31.4518L18.8206 31.107L17.5768 30.7267L16.333 30.3111L15.0956 29.8614L13.8714 29.3788L12.9658 28.9961L12.0759 28.5969L11.2029 28.18L10.3507 27.748L9.52062 27.3008L8.71657 26.8384L7.93984 26.3609L7.19433 25.8708L6.48135 25.368L5.8048 24.8539L5.16468 24.3271L4.5649 23.7902L4.00544 23.2445L3.49022 22.6887L3.01924 22.1253L2.5951 21.5543L2.33879 21.169L2.1033 20.7824L1.89122 20.3921L1.69997 20.0005L1.53213 19.6064L1.38641 19.211L1.26411 18.8143L1.16393 18.4164L1.08847 18.0172L1.03513 17.6167L1.00651 17.2176L1 16.8171L1.01821 16.4167L1.05855 16.0162L1.1236 15.617L1.21077 15.2178L1.32266 14.8212L1.45667 14.4245L1.6128 14.0291L1.79234 13.6363L1.99401 13.2459L2.21779 12.8581L2.46369 12.4715L2.73171 12.0888L3.17146 11.5203L3.65676 10.9594L4.18759 10.4061L4.76005 9.86294L5.37415 9.32985L6.02598 8.80686L6.71554 8.29651L7.43893 7.79753L8.19484 7.31118L8.98068 6.83999L9.79384 6.38269L10.6317 5.93929L11.4917 5.51232L12.3712 5.10176L13.2664 4.70763L14.4815 4.20991L15.7123 3.74377L16.9549 3.31048L18.2 2.91256L19.4412 2.55L20.6707 2.22282L21.882 1.9348L23.0698 1.68342L24.2252 1.46993L25.3415 1.29686L26.4135 1.16296L27.4362 1.06822L28.4003 1.0139L29.0833 1L29.7299 1.00884L30.3375 1.03916L30.9035 1.09348L31.4265 1.16928L31.904 1.26781L32.336 1.38908L32.7211 1.53309L33.0567 1.69731L33.2532 1.81985L33.4275 1.95122L33.5785 2.09271L33.7073 2.24303L33.8114 2.4022L33.8933 2.57148L33.9532 2.7496L33.9883 2.93656L34 3.13236L33.9883 3.33701L33.9532 3.5505L33.8933 3.77156L33.8114 4.00147L33.6448 4.3615L33.4275 4.73921L33.1582 5.13461L32.8382 5.54769L32.47 5.97593L32.0536 6.41933L31.5904 6.87915L30.9035 7.51204L30.1398 8.17019L29.3032 8.84981L28.4003 9.55092L27.1851 10.4516L25.884 11.3788L24.2252 12.5195L22.4791 13.6855L20.0579 15.2684L11.7832 20.6359L10.071 21.793L8.45375 22.9211L7.19433 23.8357L6.02598 24.7225L5.16468 25.411L4.37364 26.0767L3.65676 26.7197L3.01924 27.3387L2.5951 27.7846L2.21779 28.2154L1.89122 28.631L1.6128 29.0289L1.38641 29.4104L1.21077 29.773L1.08847 30.1178L1.03513 30.3376L1.00651 30.5486L1 30.7507L1.01821 30.9453L1.05855 31.1297L1.1236 31.3053L1.21077 31.472L1.32266 31.6287L1.45667 31.7777L1.6128 31.9167L1.79234 32.0455L1.99401 32.1656L2.33879 32.326L2.73171 32.4662L3.17146 32.5837L3.65676 32.6784L4.18759 32.7504L4.76005 32.801L5.37415 32.8275L6.02598 32.8326L6.71554 32.8149L7.68743 32.7555L8.71657 32.657L9.79384 32.518L10.9167 32.3386L12.0759 32.1213L13.2664 31.8649L14.4815 31.5718L15.7123 31.2409L16.9549 30.8733L18.2 30.4703L19.4412 30.0332L20.6707 29.5633L21.882 29.0618L22.7758 28.6651L23.6514 28.2508L24.5075 27.8213L25.3415 27.3766L26.1507 26.9155L26.9314 26.4418L27.6821 25.9542L28.4003 25.4527L29.0833 24.9398L29.7299 24.4155L30.3375 23.8812L30.9035 23.3355L31.4265 22.7822L31.904 22.2188L32.336 21.649L32.5988 21.265L32.8382 20.8784L33.0567 20.4894L33.2532 20.099L33.4275 19.7049L33.5785 19.3108L33.7073 18.9141L33.8114 18.5162L33.8933 18.117L33.9532 17.7178L33.9883 17.3174L34 16.9169Z" stroke="#202124" stroke-width="1.5" stroke-linecap="square" stroke-linejoin="round"/>
</svg>
